<svg xmlns="http://www.w3.org/2000/svg" width="18" height="10" viewBox="0 0 18 10" fill="none">
  <path fill-rule="evenodd" clip-rule="evenodd" d="M13.6037 0.292931C13.799 0.488193 13.799 0.804776 13.6037 1.00004L7.09191 7.51187L8.01941 8.43938L16.1659 0.292931C16.3611 0.0976688 16.6777 0.0976688 16.873 0.292931C17.0682 0.488193 17.0682 0.804776 16.873 1.00004L8.01941 9.85359L6.3848 8.21898L4.75019 9.85359L1.1274 6.23081C0.932141 6.03554 0.932141 5.71896 1.1274 5.5237C1.32267 5.32844 1.63925 5.32844 1.83451 5.5237L4.75019 8.43938L5.67769 7.51187L4.39663 6.23081C4.20136 6.03554 4.20136 5.71896 4.39663 5.5237C4.59189 5.32844 4.90847 5.32844 5.10373 5.5237L6.3848 6.80477L12.8966 0.292931C13.0919 0.0976688 13.4085 0.0976688 13.6037 0.292931Z" fill="white"/>
</svg>